<svg viewBox="0 0 11 19" fill="currentColor" xmlns="http://www.w3.org/2000/svg">
	<path fill-rule="evenodd" clip-rule="evenodd" d="M0.214662 18.7853C0.146615 18.7175 0.0926285 18.6368 0.0557928 18.5481C0.0189572 18.4593 -3.75911e-06 18.3641 -3.7507e-06 18.268C-3.7423e-06 18.1719 0.0189572 18.0767 0.0557929 17.988C0.0926286 17.8992 0.146615 17.8186 0.214662 17.7507L8.467 9.49981L0.214663 1.24893C0.0774599 1.11173 0.000381142 0.925639 0.000381159 0.731607C0.000381176 0.537572 0.07746 0.351485 0.214663 0.214282C0.351866 0.0770789 0.537953 -8.47496e-07 0.731987 -8.30533e-07C0.926021 -8.1357e-07 1.11211 0.077079 1.24931 0.214282L10.0175 8.98248C10.0856 9.05036 10.1395 9.13099 10.1764 9.21976C10.2132 9.30853 10.2322 9.4037 10.2322 9.49981C10.2322 9.59592 10.2132 9.69108 10.1764 9.77985C10.1395 9.86863 10.0856 9.94926 10.0175 10.0171L1.24931 18.7853C1.18144 18.8534 1.1008 18.9074 1.01203 18.9442C0.923261 18.981 0.828095 19 0.731985 19C0.635876 19 0.54071 18.981 0.451939 18.9442C0.363168 18.9074 0.282536 18.8534 0.214662 18.7853Z" />
</svg>
