<svg viewBox="0 0 16 16" fill="currentColor" xmlns="http://www.w3.org/2000/svg">
	<path fill-rule="evenodd" clip-rule="evenodd" d="M1.64604 4.64592C1.69249 4.59935 1.74766 4.56241 1.80841 4.5372C1.86915 4.512 1.93427 4.49902 2.00004 4.49902C2.06581 4.49902 2.13093 4.512 2.19167 4.5372C2.25242 4.56241 2.30759 4.59935 2.35404 4.64592L8.00004 10.2929L13.646 4.64592C13.6925 4.59943 13.7477 4.56255 13.8085 4.53739C13.8692 4.51223 13.9343 4.49929 14 4.49929C14.0658 4.49929 14.1309 4.51223 14.1916 4.53739C14.2524 4.56255 14.3076 4.59943 14.354 4.64592C14.4005 4.6924 14.4374 4.74759 14.4626 4.80833C14.4877 4.86907 14.5007 4.93417 14.5007 4.99992C14.5007 5.06566 14.4877 5.13076 14.4626 5.1915C14.4374 5.25224 14.4005 5.30743 14.354 5.35392L8.35404 11.3539C8.30759 11.4005 8.25242 11.4374 8.19167 11.4626C8.13093 11.4878 8.06581 11.5008 8.00004 11.5008C7.93427 11.5008 7.86915 11.4878 7.80841 11.4626C7.74766 11.4374 7.69248 11.4005 7.64604 11.3539L1.64604 5.35392C1.59948 5.30747 1.56253 5.2523 1.53733 5.19155C1.51212 5.13081 1.49915 5.06568 1.49915 4.99992C1.49915 4.93415 1.51212 4.86903 1.53733 4.80828C1.56253 4.74754 1.59948 4.69236 1.64604 4.64592Z" />
</svg>
