<svg viewBox="0 0 25 26" fill="none" xmlns="http://www.w3.org/2000/svg">
	<path d="M12.5 25.4999C13.3288 25.4999 14.1237 25.1707 14.7097 24.5846C15.2958 23.9986 15.625 23.2037 15.625 22.3749H9.375C9.375 23.2037 9.70424 23.9986 10.2903 24.5846C10.8763 25.1707 11.6712 25.4999 12.5 25.4999ZM12.5 3.49678L11.2547 3.74834C9.84212 4.03615 8.57239 4.80319 7.66039 5.91962C6.7484 7.03606 6.25015 8.43332 6.25 9.8749C6.25 10.8562 6.04062 13.3077 5.53281 15.7218C5.28281 16.9202 4.94531 18.1687 4.49688 19.2499H20.5031C20.0547 18.1687 19.7188 16.9218 19.4672 15.7218C18.9594 13.3077 18.75 10.8562 18.75 9.8749C18.7495 8.43359 18.2511 7.0367 17.3391 5.92058C16.4271 4.80447 15.1576 4.03766 13.7453 3.7499L12.5 3.49521V3.49678ZM22.2188 19.2499C22.5672 19.9483 22.9703 20.5015 23.4375 20.8124H1.5625C2.02969 20.5015 2.43281 19.9483 2.78125 19.2499C4.1875 16.4374 4.6875 11.2499 4.6875 9.8749C4.6875 6.09365 7.375 2.9374 10.9453 2.21709C10.9235 1.99983 10.9475 1.78041 11.0157 1.57299C11.0839 1.36556 11.1948 1.17473 11.3413 1.01281C11.4878 0.850881 11.6666 0.721456 11.8661 0.632878C12.0657 0.5443 12.2816 0.498535 12.5 0.498535C12.7184 0.498535 12.9343 0.5443 13.1339 0.632878C13.3334 0.721456 13.5122 0.850881 13.6587 1.01281C13.8052 1.17473 13.9161 1.36556 13.9843 1.57299C14.0525 1.78041 14.0765 1.99983 14.0547 2.21709C15.8208 2.57631 17.4084 3.53484 18.5488 4.93037C19.6892 6.3259 20.3123 8.07267 20.3125 9.8749C20.3125 11.2499 20.8125 16.4374 22.2188 19.2499Z" fill="currentColor" />
</svg>
