<svg viewBox="0 0 25 26" fill="none" xmlns="http://www.w3.org/2000/svg">
	<g clip-path="url(#clip0)">
		<path fill-rule="evenodd" clip-rule="evenodd" d="M12.5 12.2188C12.7072 12.2188 12.9059 12.3011 13.0524 12.4476C13.1989 12.5941 13.2812 12.7928 13.2812 13V15.3438H15.625C15.8322 15.3438 16.0309 15.4261 16.1774 15.5726C16.3239 15.7191 16.4062 15.9178 16.4062 16.125C16.4062 16.3322 16.3239 16.5309 16.1774 16.6774C16.0309 16.8239 15.8322 16.9062 15.625 16.9062H13.2812V19.25C13.2812 19.4572 13.1989 19.6559 13.0524 19.8024C12.9059 19.9489 12.7072 20.0312 12.5 20.0312C12.2928 20.0312 12.0941 19.9489 11.9476 19.8024C11.8011 19.6559 11.7188 19.4572 11.7188 19.25V16.9062H9.375C9.1678 16.9062 8.96909 16.8239 8.82257 16.6774C8.67606 16.5309 8.59375 16.3322 8.59375 16.125C8.59375 15.9178 8.67606 15.7191 8.82257 15.5726C8.96909 15.4261 9.1678 15.3438 9.375 15.3438H11.7188V13C11.7188 12.7928 11.8011 12.5941 11.9476 12.4476C12.0941 12.3011 12.2928 12.2188 12.5 12.2188Z" fill="currentColor" />
		<path d="M12.5 2.0625C13.536 2.0625 14.5296 2.47405 15.2621 3.20661C15.9947 3.93918 16.4062 4.93275 16.4062 5.96875V6.75H8.59375V5.96875C8.59375 4.93275 9.0053 3.93918 9.73786 3.20661C10.4704 2.47405 11.464 2.0625 12.5 2.0625ZM17.9688 6.75V5.96875C17.9688 4.51835 17.3926 3.12735 16.367 2.10176C15.3414 1.07617 13.9504 0.5 12.5 0.5C11.0496 0.5 9.6586 1.07617 8.63301 2.10176C7.60742 3.12735 7.03125 4.51835 7.03125 5.96875V6.75H1.5625V22.375C1.5625 23.2038 1.89174 23.9987 2.47779 24.5847C3.06384 25.1708 3.8587 25.5 4.6875 25.5H20.3125C21.1413 25.5 21.9362 25.1708 22.5222 24.5847C23.1083 23.9987 23.4375 23.2038 23.4375 22.375V6.75H17.9688ZM3.125 8.3125H21.875V22.375C21.875 22.7894 21.7104 23.1868 21.4174 23.4799C21.1243 23.7729 20.7269 23.9375 20.3125 23.9375H4.6875C4.2731 23.9375 3.87567 23.7729 3.58265 23.4799C3.28962 23.1868 3.125 22.7894 3.125 22.375V8.3125Z" fill="currentColor" />
	</g>
	<defs>
		<clipPath id="clip0">
			<rect width="25" height="25" fill="currentColor" transform="translate(0 0.5)" />
		</clipPath>
	</defs>
</svg>
