<svg viewBox="0 0 21 22" fill="none" xmlns="http://www.w3.org/2000/svg">
	<g clip-path="url(#clip0)">
		<path fill-rule="evenodd" clip-rule="evenodd" d="M8.1677 11.3167C8.29013 11.193 8.45669 11.123 8.63073 11.1221C8.80478 11.1212 8.97206 11.1894 9.09577 11.3119L10.4951 12.6967L11.88 11.2974C12.0024 11.1736 12.1689 11.1036 12.343 11.1027C12.517 11.1018 12.6843 11.1701 12.808 11.2925C12.9317 11.415 13.0017 11.5815 13.0027 11.7556C13.0036 11.9296 12.9353 12.0969 12.8129 12.2206L11.428 13.6199L12.8274 15.0048C12.9511 15.1272 13.0211 15.2938 13.022 15.4678C13.0229 15.6419 12.9546 15.8091 12.8322 15.9329C12.7098 16.0566 12.5432 16.1266 12.3692 16.1275C12.1951 16.1284 12.0278 16.0601 11.9041 15.9377L10.5048 14.5528L9.11993 15.9522C8.9975 16.0759 8.83094 16.1459 8.65689 16.1468C8.48285 16.1477 8.31557 16.0794 8.19186 15.957C8.06815 15.8346 7.99814 15.668 7.99724 15.494C7.99633 15.3199 8.0646 15.1527 8.18703 15.0289L9.57188 13.6296L8.17253 12.2447C8.04882 12.1223 7.97882 11.9558 7.97791 11.7817C7.977 11.6077 8.04527 11.4404 8.1677 11.3167Z" fill="currentColor" fill-opacity="0.5" />
		<path d="M10.5 1.8125C11.3702 1.8125 12.2048 2.1582 12.8202 2.77356C13.4355 3.38891 13.7812 4.22351 13.7812 5.09375V5.75H7.21875V5.09375C7.21875 4.22351 7.56445 3.38891 8.17981 2.77356C8.79516 2.1582 9.62976 1.8125 10.5 1.8125ZM15.0938 5.75V5.09375C15.0938 3.87541 14.6098 2.70697 13.7483 1.84548C12.8868 0.983983 11.7183 0.5 10.5 0.5C9.28166 0.5 8.11322 0.983983 7.25173 1.84548C6.39023 2.70697 5.90625 3.87541 5.90625 5.09375V5.75H1.3125V18.875C1.3125 19.5712 1.58906 20.2389 2.08134 20.7312C2.57363 21.2234 3.24131 21.5 3.9375 21.5H17.0625C17.7587 21.5 18.4264 21.2234 18.9187 20.7312C19.4109 20.2389 19.6875 19.5712 19.6875 18.875V5.75H15.0938ZM2.625 7.0625H18.375V18.875C18.375 19.2231 18.2367 19.5569 17.9906 19.8031C17.7444 20.0492 17.4106 20.1875 17.0625 20.1875H3.9375C3.5894 20.1875 3.25556 20.0492 3.00942 19.8031C2.76328 19.5569 2.625 19.2231 2.625 18.875V7.0625Z" fill="currentColor" fill-opacity="0.5" />
	</g>
	<defs>
		<clipPath id="clip0">
			<rect width="21" height="21" fill="white" transform="translate(0 0.5)" />
		</clipPath>
	</defs>
</svg>
