<svg viewBox="0 0 24 24" fill="none" xmlns="http://www.w3.org/2000/svg">
	<path d="M4.36547 22.1996C4.24887 22.8633 4.90365 23.3821 5.48069 23.0861L12.0434 19.7135L18.6047 23.0861C19.1817 23.3821 19.8365 22.8633 19.7199 22.2011L18.4791 15.1301L23.7458 10.1131C24.2376 9.64366 23.982 8.78557 23.3227 8.69288L16.0005 7.65241L12.7356 1.18384C12.6734 1.05271 12.5753 0.94193 12.4526 0.864357C12.33 0.786784 12.1878 0.745605 12.0427 0.745605C11.8976 0.745605 11.7554 0.786784 11.6328 0.864357C11.5101 0.94193 11.412 1.05271 11.3498 1.18384L8.08486 7.6539L0.762684 8.69438C0.103419 8.78706 -0.152215 9.64515 0.339618 10.1146L5.60627 15.1316L4.36547 22.2026V22.1996ZM11.6981 18.0631L6.18779 20.8945L7.22528 14.9791C7.24958 14.8429 7.24007 14.7028 7.19758 14.5712C7.1551 14.4396 7.08093 14.3204 6.9816 14.2241L2.63733 10.0832L8.6948 9.22209C8.82023 9.20315 8.9392 9.15408 9.04152 9.0791C9.14384 9.00412 9.22646 8.90545 9.2823 8.79155L12.0434 3.32308L14.8031 8.79155C14.8589 8.90545 14.9416 9.00412 15.0439 9.0791C15.1462 9.15408 15.2652 9.20315 15.3906 9.22209L21.4481 10.0817L17.1038 14.2226C17.0041 14.319 16.9297 14.4384 16.8872 14.5703C16.8447 14.7023 16.8354 14.8427 16.8601 14.9791L17.8976 20.8945L12.3873 18.0631C12.2807 18.0082 12.1626 17.9795 12.0427 17.9795C11.9228 17.9795 11.8047 18.0082 11.6981 18.0631Z" fill="url(#paint0_linear)" />
	<defs>
		<linearGradient id="paint0_linear" x1="0.0830078" y1="11.9584" x2="24.0024" y2="11.9584" gradientUnits="userSpaceOnUse">
			<stop stop-color="#50D9C4" />
			<stop offset="1" stop-color="#49A9E6" />
		</linearGradient>
	</defs>
</svg>
