<svg viewBox="0 0 30 30" fill="none" xmlns="http://www.w3.org/2000/svg">
	<g clip-path="url(#clip0)">
		<path d="M30.0018 15.0928C30.0018 6.75652 23.2855 -0.000976562 15.0018 -0.000976562C6.7143 0.000898438 -0.00195312 6.75653 -0.00195312 15.0947C-0.00195312 22.6265 5.4843 28.8703 12.6543 30.0028V19.4559H8.84805V15.0947H12.658V11.7665C12.658 7.98465 14.8987 5.8959 18.3243 5.8959C19.9668 5.8959 21.6824 6.19027 21.6824 6.19027V9.90277H19.7905C17.9287 9.90277 17.3474 11.0671 17.3474 12.2615V15.0928H21.5062L20.8424 19.454H17.3455V30.0009C24.5155 28.8684 30.0018 22.6247 30.0018 15.0928Z" fill="url(#paint0_linear)" />
	</g>
	<defs>
		<linearGradient id="paint0_linear" x1="-0.00195312" y1="15.0009" x2="30.0018" y2="15.0009" gradientUnits="userSpaceOnUse">
			<stop stop-color="#50D9C4" />
			<stop offset="1" stop-color="#49A9E6" />
		</linearGradient>
		<clipPath id="clip0">
			<rect width="30" height="30" fill="white" />
		</clipPath>
	</defs>
</svg>
