<svg viewBox="0 0 25 24" fill="none" xmlns="http://www.w3.org/2000/svg">
	<g clip-path="url(#clip0)">
		<path d="M8.81463 7.65265L12.0796 1.18408C12.1423 1.05395 12.2402 0.944042 12.3623 0.866869C12.4845 0.789695 12.6258 0.748356 12.7702 0.747559C13.0438 0.747559 13.3174 0.892567 13.4654 1.18408L16.7303 7.65265L24.0525 8.69312C24.235 8.72182 24.402 8.81258 24.5254 8.95011C24.6488 9.08764 24.7209 9.26352 24.7297 9.44806C24.7399 9.57091 24.7224 9.69448 24.6784 9.80963C24.6344 9.92478 24.5651 10.0286 24.4755 10.1133L19.2089 15.1303L20.4497 22.2013C20.5663 22.8636 19.9115 23.3823 19.3345 23.0863L12.7702 19.7138L6.20896 23.0863C6.14034 23.122 6.06677 23.1472 5.9907 23.1611C5.48093 23.2508 4.99208 22.7814 5.09374 22.2013L6.33453 15.1303L1.06938 10.1133C0.987797 10.0357 0.923012 9.94224 0.87904 9.83861C0.835067 9.73498 0.812844 9.62342 0.813747 9.51085C0.814131 9.35179 0.85752 9.1958 0.939321 9.05938C0.99822 8.96082 1.0785 8.87674 1.17423 8.81335C1.26997 8.74996 1.37871 8.70887 1.49245 8.69312L8.81463 7.65265ZM12.7702 17.9796C12.8898 17.9796 13.0094 18.0066 13.117 18.0634L18.6274 20.8948L17.5899 14.9793C17.5654 14.8431 17.5749 14.7031 17.6174 14.5714C17.6599 14.4397 17.7341 14.3206 17.8336 14.2244L22.1778 10.0834L16.1204 9.22233C15.9949 9.20339 15.876 9.15432 15.7736 9.07934C15.6713 9.00436 15.5887 8.90569 15.5329 8.79179L12.7732 3.32333L12.7702 3.32781V17.9781V17.9796Z" fill="url(#paint0_linear)" />
	</g>
	<defs>
		<linearGradient id="paint0_linear" x1="0.813721" y1="11.9598" x2="24.7325" y2="11.9598" gradientUnits="userSpaceOnUse">
			<stop stop-color="#50D9C4" />
			<stop offset="1" stop-color="#49A9E6" />
		</linearGradient>
		<clipPath id="clip0">
			<rect width="23.9189" height="23.9189" fill="white" transform="translate(0.810791)" />
		</clipPath>
	</defs>
</svg>
