<svg viewBox="0 0 18 18" fill="currentColor" xmlns="http://www.w3.org/2000/svg">
	<path d="M16.91 10.19H10.52V16.67H7.97V10.19H1.61V7.88H7.97V1.37H10.52V7.88H16.91V10.19Z" fill="currentColor" />
	<path d="M16.91 10.19V11.19H17.91V10.19H16.91ZM10.52 10.19V9.19H9.52V10.19H10.52ZM10.52 16.67V17.67H11.52V16.67H10.52ZM7.97 16.67H6.97V17.67H7.97V16.67ZM7.97 10.19H8.97V9.19H7.97V10.19ZM1.61 10.19H0.61V11.19H1.61V10.19ZM1.61 7.88V6.88H0.61V7.88H1.61ZM7.97 7.88V8.88H8.97V7.88H7.97ZM7.97 1.37V0.369999H6.97V1.37H7.97ZM10.52 1.37H11.52V0.369999H10.52V1.37ZM10.52 7.88H9.52V8.88H10.52V7.88ZM16.91 7.88H17.91V6.88H16.91V7.88ZM16.91 9.19H10.52V11.19H16.91V9.19ZM9.52 10.19V16.67H11.52V10.19H9.52ZM10.52 15.67H7.97V17.67H10.52V15.67ZM8.97 16.67V10.19H6.97V16.67H8.97ZM7.97 9.19H1.61V11.19H7.97V9.19ZM2.61 10.19V7.88H0.61V10.19H2.61ZM1.61 8.88H7.97V6.88H1.61V8.88ZM8.97 7.88V1.37H6.97V7.88H8.97ZM7.97 2.37H10.52V0.369999H7.97V2.37ZM9.52 1.37V7.88H11.52V1.37H9.52ZM10.52 8.88H16.91V6.88H10.52V8.88ZM15.91 7.88V10.19H17.91V7.88H15.91Z" fill="#EDF0F3" />
</svg>
